<?xml version="1.0" encoding="UTF-8" standalone="no"?>
<!-- Created with Inkscape (http://www.inkscape.org/) -->

<svg
   width="8.4666662mm"
   height="8.4666662mm"
   viewBox="0 0 8.4666662 8.4666662"
   version="1.1"
   id="svg350"
   inkscape:version="1.2.2 (732a01da63, 2022-12-09)"
   sodipodi:docname="favicon.svg"
   xmlns:inkscape="http://www.inkscape.org/namespaces/inkscape"
   xmlns:sodipodi="http://sodipodi.sourceforge.net/DTD/sodipodi-0.dtd"
   xmlns="http://www.w3.org/2000/svg"
   xmlns:svg="http://www.w3.org/2000/svg">
  <sodipodi:namedview
     id="namedview148"
     pagecolor="#ffffff"
     bordercolor="#000000"
     borderopacity="0.25"
     inkscape:showpageshadow="2"
     inkscape:pageopacity="0.0"
     inkscape:pagecheckerboard="0"
     inkscape:deskcolor="#d1d1d1"
     inkscape:document-units="mm"
     showgrid="false"
     inkscape:zoom="25.187501"
     inkscape:cx="15.999999"
     inkscape:cy="15.999999"
     inkscape:window-width="1920"
     inkscape:window-height="1009"
     inkscape:window-x="-8"
     inkscape:window-y="-8"
     inkscape:window-maximized="1"
     inkscape:current-layer="g18" />
  <defs
     id="defs347">
    <rect
       x="2.5388714"
       y="2.5388714"
       width="26.404263"
       height="27.927586"
       id="rect1158" />
  </defs>
  <g
     id="layer1">
    <g
       fill="none"
       fill-rule="evenodd"
       id="g18"
       transform="matrix(0.11736404,0,0,0.11736404,0.00687558,0.01806998)">
      <path
         d="m 8,72 h 56 c 4.418278,0 8,-3.581722 8,-8 V 8 C 72,3.581722 68.418278,0 64,0 H 8 C 3.581722,0 0,3.581722 0,8 v 56 c 0,4.418278 3.581722,8 8,8 z"
         fill="#007ebb"
         id="path14"
         style="fill:#0a131f;fill-opacity:1" />
    </g>
    <path
       style="fill:#ffffff;fill-opacity:1;stroke:#ffffff;stroke-width:0.697;stroke-linecap:round;stroke-opacity:0;paint-order:fill markers stroke"
       d="m 4.2828074,1.5054266 c 0,0 0.00392,3.6896361 0,3.9408926 C 4.278883,5.6975757 3.7203709,5.9370043 3.3647585,5.4351235 3.1200937,5.0898246 3.0848656,5.0432733 3.0848656,5.0432733 L 2.1332295,5.6590379 c 0,0 0.4926116,1.3546817 1.9256634,1.3546817 1.4330519,0 1.6597698,-0.669356 1.7017492,-1.4330519 0.041979,-0.7636959 0.044783,-4.0304583 0.044783,-4.0304583 z"
       id="path439"
       sodipodi:nodetypes="czsccszcc" />
  </g>
</svg>
